<?xml version="1.0" standalone="no"?>
<!DOCTYPE svg PUBLIC "-//W3C//DTD SVG 20010904//EN">
<svg version="1.0" xmlns="http://www.w3.org/2000/svg"
 width="300.000000pt" height="300.000000pt" viewBox="0 0 300.000000 300.000000"
 preserveAspectRatio="xMidYMid meet">
<metadata>
Created by potrace 1.10, written by Peter Selinger 2001-2011
</metadata>
<g transform="translate(0.000000,300.000000) scale(0.100000,-0.100000)"
fill="#000000" stroke="none">
<path d="M1405 2325 c-192 -36 -285 -106 -320 -241 -21 -82 -19 -200 6 -305
l21 -89 37 0 c79 0 335 101 504 199 103 59 298 197 357 251 42 38 52 77 27 98
-26 22 -198 71 -300 86 -124 19 -236 19 -332 1z m380 -50 c109 -20 205 -54
212 -73 8 -20 -36 -58 -182 -161 -132 -93 -222 -146 -341 -202 -112 -52 -297
-114 -317 -106 -24 9 -39 72 -44 188 -6 130 11 201 62 258 95 105 353 146 610
96z"/>
<path d="M160 2232 c-34 -27 -15 -52 77 -102 140 -75 245 -173 348 -324 l40
-59 -25 -15 c-90 -56 -193 -208 -223 -327 -37 -143 -31 -225 19 -285 43 -51
81 -36 144 60 46 70 96 112 192 161 101 52 146 92 192 172 29 49 56 157 56
225 0 40 -3 44 -35 58 -42 17 -129 18 -193 2 -41 -10 -47 -9 -56 7 -124 213
-320 388 -492 439 -13 4 -30 0 -44 -12z m330 -222 c41 -41 97 -109 124 -150
67 -103 83 -114 147 -101 63 14 135 14 160 1 24 -13 25 -50 3 -134 -31 -121
-90 -189 -223 -257 -84 -43 -136 -89 -203 -179 -42 -55 -66 -58 -91 -10 -36
70 2 257 76 372 35 54 51 72 126 142 24 23 41 48 41 61 0 39 -80 147 -190 257
-62 62 -94 100 -76 90 17 -9 64 -51 106 -92z"/>
<path d="M554 1586 c-39 -39 -40 -50 -18 -106 22 -54 74 -87 113 -70 42 17 75
68 75 114 1 30 -6 44 -32 67 -46 42 -93 40 -138 -5z m120 -22 c30 -29 16 -93
-25 -114 -28 -15 -57 -4 -74 30 -30 58 -9 100 50 100 18 0 41 -7 49 -16z"/>
<path d="M2192 2083 c-32 -16 -442 -429 -442 -446 0 -12 330 -666 394 -780 68
-122 98 -163 139 -183 40 -21 123 -22 163 -1 88 46 181 227 214 419 6 34 13
75 16 91 l6 27 -104 0 c-111 0 -226 20 -264 45 -14 9 -24 25 -24 39 0 23 7 25
138 50 75 14 158 29 185 32 26 4 49 10 51 13 9 14 -45 157 -103 271 -95 189
-240 393 -301 425 -35 18 -28 18 -68 -2z m108 -90 c133 -149 341 -535 307
-570 -4 -3 -70 -18 -149 -33 -171 -34 -175 -35 -192 -69 -19 -36 1 -84 44
-106 47 -24 155 -45 238 -45 55 0 74 -4 78 -15 8 -21 -23 -157 -53 -235 -37
-94 -89 -176 -127 -199 -23 -14 -50 -21 -86 -21 -94 0 -112 27 -421 635 -102
202 -140 286 -135 300 8 23 344 371 384 397 42 28 57 22 112 -39z"/>
<path d="M1498 1636 c-35 -26 -30 -43 79 -286 193 -429 308 -665 333 -683 24
-17 48 -13 68 11 28 36 26 42 -198 547 -34 77 -86 194 -115 259 -29 66 -62
130 -73 143 -23 26 -67 30 -94 9z m110 -118 c17 -40 50 -116 75 -168 90 -194
267 -608 267 -624 0 -9 -7 -16 -16 -16 -17 0 -98 164 -286 580 -132 291 -135
299 -117 311 24 14 47 -10 77 -83z"/>
<path d="M1141 1551 c-35 -37 -124 -186 -208 -347 -60 -116 -67 -124 -118
-153 -63 -36 -340 -242 -372 -278 -25 -26 -30 -72 -11 -91 25 -25 59 -10 174
75 66 48 177 127 247 174 l129 88 149 248 c82 136 149 256 149 265 0 24 -39
48 -78 48 -25 0 -42 -8 -61 -29z m85 -25 c3 -9 -54 -115 -133 -246 l-138 -232
-140 -96 c-77 -52 -181 -126 -231 -164 -92 -69 -114 -79 -114 -54 0 24 109
110 323 256 l109 75 52 100 c76 147 196 344 220 361 26 18 45 18 52 0z"/>
<path d="M1370 1392 l-34 -29 22 -84 c13 -46 45 -169 72 -274 77 -298 87 -328
111 -348 28 -23 47 -19 72 15 l20 27 -42 188 c-86 382 -117 496 -141 515 -30
24 -40 23 -80 -10z m64 -44 c8 -13 35 -111 61 -218 25 -107 52 -222 60 -255
26 -106 32 -153 24 -167 -12 -19 -34 7 -47 57 -83 317 -142 554 -142 571 0 39
22 45 44 12z"/>
</g>
</svg>
